<?xml version="1.0" encoding="UTF-8"?><svg xmlns="http://www.w3.org/2000/svg" xmlns:xlink="http://www.w3.org/1999/xlink" viewBox="0 0 596 557"><defs><style>.cls-1{fill:none;opacity:.44;stroke-linecap:round;stroke-width:5px;}.cls-1,.cls-2{stroke:#fff;stroke-miterlimit:10;}.cls-3{fill:url(#linear-gradient);opacity:.49;}.cls-3,.cls-4{mix-blend-mode:hard-light;}.cls-4{fill:url(#linear-gradient-26);opacity:.7;}.cls-5{fill:url(#linear-gradient-15);}.cls-5,.cls-6,.cls-7,.cls-8{mix-blend-mode:screen;}.cls-5,.cls-6,.cls-7,.cls-8,.cls-2,.cls-9{opacity:.4;}.cls-6{fill:url(#linear-gradient-16);}.cls-7{fill:url(#linear-gradient-14);}.cls-8{fill:url(#linear-gradient-13);}.cls-10{fill:url(#linear-gradient-7);}.cls-10,.cls-11,.cls-12,.cls-13,.cls-14{opacity:.15;}.cls-11{fill:url(#linear-gradient-6);}.cls-12{fill:url(#linear-gradient-3);}.cls-13{fill:url(#linear-gradient-4);}.cls-14{fill:url(#linear-gradient-2);}.cls-15{fill:url(#linear-gradient-8);}.cls-16{fill:url(#linear-gradient-9);}.cls-17{fill:url(#linear-gradient-5);}.cls-2{fill:url(#linear-gradient-27);stroke-width:1.5px;}.cls-2,.cls-9,.cls-18{mix-blend-mode:overlay;}.cls-19{fill:url(#linear-gradient-18);}.cls-20{fill:url(#linear-gradient-22);}.cls-21{fill:url(#linear-gradient-20);}.cls-22{fill:url(#linear-gradient-21);}.cls-23{fill:url(#linear-gradient-23);}.cls-24{fill:url(#linear-gradient-19);}.cls-25{fill:url(#linear-gradient-17);}.cls-26{fill:url(#linear-gradient-12);}.cls-27{fill:url(#linear-gradient-10);}.cls-28{fill:url(#linear-gradient-11);}.cls-29{fill:url(#linear-gradient-24);}.cls-30{fill:url(#linear-gradient-25);}.cls-31{isolation:isolate;}.cls-9{fill:#e858cd;}.cls-18{fill:#fff;opacity:.2;}</style><linearGradient id="linear-gradient" x1="410.2125" y1="379.2125" x2="198.7875" y2="167.7875" gradientUnits="userSpaceOnUse"><stop offset="0" stop-color="#f4d1ff" stop-opacity="0"/><stop offset=".0249" stop-color="#efc5fb" stop-opacity=".0536"/><stop offset=".1521" stop-color="#d891eb" stop-opacity=".3027"/><stop offset=".2832" stop-color="#c464dd" stop-opacity=".5171"/><stop offset=".4163" stop-color="#b440d2" stop-opacity=".6919"/><stop offset=".5521" stop-color="#a724ca" stop-opacity=".8274"/><stop offset=".6916" stop-color="#9f0fc3" stop-opacity=".9238"/><stop offset=".8371" stop-color="#9903c0" stop-opacity=".9813"/><stop offset=".9982" stop-color="#9800bf"/></linearGradient><linearGradient id="linear-gradient-2" x1="131" y1="137" x2="131" y2="73" gradientUnits="userSpaceOnUse"><stop offset="0" stop-color="#007f24"/><stop offset="1" stop-color="#f2d31c"/></linearGradient><linearGradient id="linear-gradient-3" y1="132.0291" y2="77.9709" xlink:href="#linear-gradient-2"/><linearGradient id="linear-gradient-4" y1="127.0583" y2="82.9417" xlink:href="#linear-gradient-2"/><linearGradient id="linear-gradient-5" y1="122.0874" y2="87.9126" xlink:href="#linear-gradient-2"/><linearGradient id="linear-gradient-6" x1="454.0631" y1="452.8738" x2="454.0631" y2="413" gradientUnits="userSpaceOnUse"><stop offset="0" stop-color="#fe330a"/><stop offset="1" stop-color="#f2d31c"/></linearGradient><linearGradient id="linear-gradient-7" y1="449.2072" y2="416.6666" xlink:href="#linear-gradient-6"/><linearGradient id="linear-gradient-8" x1="1115.4353" y1="1235.3365" x2="1140.6429" y2="1235.3365" gradientTransform="translate(-1119.4019 1001.0356) rotate(-67.4515)" xlink:href="#linear-gradient-6"/><linearGradient id="linear-gradient-9" x1="86.3479" y1="207.3662" x2="86.3479" y2="253.2304" gradientUnits="userSpaceOnUse"><stop offset="0" stop-color="#fff" stop-opacity="0"/><stop offset="1" stop-color="#79aa00" stop-opacity=".7"/></linearGradient><linearGradient id="linear-gradient-10" x1="479.5702" y1="356.4302" x2="479.5702" y2="389.341" xlink:href="#linear-gradient-9"/><linearGradient id="linear-gradient-11" x1="302.0603" y1="58.1749" x2="302.0603" y2="80.8748" xlink:href="#linear-gradient-9"/><linearGradient id="linear-gradient-12" x1="168.5073" y1="421.3205" x2="168.5073" y2="442.1381" gradientUnits="userSpaceOnUse"><stop offset=".5434" stop-color="#fff" stop-opacity="0"/><stop offset="1" stop-color="#00add4" stop-opacity=".2"/></linearGradient><linearGradient id="linear-gradient-13" x1="391" y1="100" x2="391" y2="110" gradientUnits="userSpaceOnUse"><stop offset="0" stop-color="#1a00d2" stop-opacity=".3"/><stop offset=".1703" stop-color="#2001cc" stop-opacity=".3515"/><stop offset=".4251" stop-color="#3106bc" stop-opacity=".494"/><stop offset=".7312" stop-color="#4d0da2" stop-opacity=".7257"/><stop offset="1" stop-color="#6b1687" stop-opacity=".97"/></linearGradient><linearGradient id="linear-gradient-14" x1="357" y1="475" x2="357" y2="485" xlink:href="#linear-gradient-13"/><linearGradient id="linear-gradient-15" x1="519.5" y1="250" x2="519.5" y2="267" xlink:href="#linear-gradient-13"/><linearGradient id="linear-gradient-16" x1="131" y1="333" x2="131" y2="343" xlink:href="#linear-gradient-13"/><linearGradient id="linear-gradient-17" x1="103.664" y1="284.1185" x2="103.664" y2="304.0256" xlink:href="#linear-gradient-12"/><linearGradient id="linear-gradient-18" x1="231.9942" y1="88.4061" x2="231.9942" y2="111.6337" xlink:href="#linear-gradient-12"/><linearGradient id="linear-gradient-19" x1="217.9942" y1="456.4061" x2="217.9942" y2="479.6337" xlink:href="#linear-gradient-12"/><linearGradient id="linear-gradient-20" x1="491.7705" y1="200.1715" x2="491.7705" y2="215.0497" xlink:href="#linear-gradient-12"/><linearGradient id="linear-gradient-21" x1="113.7705" y1="379.1715" x2="113.7705" y2="394.0497" xlink:href="#linear-gradient-12"/><linearGradient id="linear-gradient-22" x1="319.7705" y1="444.1715" x2="319.7705" y2="459.0497" xlink:href="#linear-gradient-12"/><linearGradient id="linear-gradient-23" x1="304.2315" y1="413" x2="304.2315" y2="251.8815" gradientUnits="userSpaceOnUse"><stop offset=".4652" stop-color="#0090ff"/><stop offset="1" stop-color="#6af4ff"/></linearGradient><linearGradient id="linear-gradient-24" x1="298.6117" y1="413" x2="298.6117" y2="298.6816" gradientUnits="userSpaceOnUse"><stop offset="0" stop-color="#ad00ba"/><stop offset=".5055" stop-color="#cb53d4"/><stop offset=".8357" stop-color="#fcd8fd"/><stop offset=".9982" stop-color="#fff"/></linearGradient><linearGradient id="linear-gradient-25" x1="236.6287" y1="300.9506" x2="246.0122" y2="247.7342" gradientUnits="userSpaceOnUse"><stop offset=".1794" stop-color="#0090ff"/><stop offset="1" stop-color="#6af4ff"/></linearGradient><linearGradient id="linear-gradient-26" x1="339.9811" y1="405.9174" x2="267.2492" y2="134.4782" gradientUnits="userSpaceOnUse"><stop offset="0" stop-color="#e8ed18"/><stop offset=".0011" stop-color="#e8ed19" stop-opacity=".9952"/><stop offset=".0581" stop-color="#edf14e" stop-opacity=".7643"/><stop offset=".1161" stop-color="#f2f47d" stop-opacity=".5623"/><stop offset=".1757" stop-color="#f6f7a5" stop-opacity=".3894"/><stop offset=".2362" stop-color="#f9fac5" stop-opacity=".2484"/><stop offset=".2979" stop-color="#fbfcde" stop-opacity=".1391"/><stop offset=".3613" stop-color="#fdfdf0" stop-opacity=".0614"/><stop offset=".4274" stop-color="#fefefb" stop-opacity=".0151"/><stop offset=".5006" stop-color="#fff" stop-opacity="0"/></linearGradient><linearGradient id="linear-gradient-27" x1="410.2125" y1="379.2125" x2="198.7875" y2="167.7875" gradientUnits="userSpaceOnUse"><stop offset="0" stop-color="#fff" stop-opacity="0"/><stop offset="1" stop-color="#fff"/></linearGradient></defs><g class="cls-31"><g id="Layer_2"><circle id="base" class="cls-3" cx="304.5" cy="273.5" r="149.5"/><circle class="cls-14" cx="131" cy="105" r="32"/><circle class="cls-12" cx="131" cy="105" r="27.0291"/><circle class="cls-13" cx="131" cy="105" r="22.0583"/><circle class="cls-17" cx="131" cy="105" r="17.0874"/><circle class="cls-11" cx="454.0631" cy="432.9369" r="19.9369"/><circle class="cls-10" cx="454.0631" cy="432.9369" r="16.2703"/><circle class="cls-15" cx="454.0631" cy="432.9369" r="12.6038"/><path class="cls-16" d="m86.2056,252.5279l-4.1763-16.9665c-.0861-.3496-.3675-.6173-.721-.6857l-17.1549-3.3189c-.98-.1896-1.0035-1.5835-.0305-1.8062l16.8537-3.8562c.3617-.0828.6387-.374.7032-.7394l3.0049-17.0261c.1735-.983,1.5668-1.0294,1.8054-.0602l4.1763,16.9665c.0861.3496.3675.6173.721.6857l17.1549,3.3189c.98.1896,1.0035,1.5835.0305,1.8062l-16.8537,3.8562c-.3617.0828-.6387.374-.7032.7394l-3.0049,17.0261c-.1735.983-1.5668,1.0294-1.8054.0602Z"/><path class="cls-27" d="m479.4681,388.8369l-2.9968-12.1747c-.0618-.2509-.2637-.4429-.5174-.492l-12.3099-2.3816c-.7032-.136-.7201-1.1363-.0219-1.2961l12.0937-2.7671c.2595-.0594.4583-.2684.5046-.5306l2.1562-12.2174c.1245-.7053,1.1243-.7387,1.2955-.0432l2.9968,12.1747c.0618.2509.2637.4429.5174.492l12.3099,2.3816c.7032.136.7201,1.1363.0219,1.2961l-12.0937,2.7671c-.2595.0594-.4583.2684-.5046.5306l-2.1562,12.2174c-.1245.7053-1.1243.7387-1.2955.0432Z"/><path class="cls-28" d="m301.9899,80.5271l-2.067-8.3974c-.0426-.173-.1819-.3055-.3569-.3394l-8.4906-1.6427c-.485-.0938-.4967-.7838-.0151-.8939l8.3415-1.9086c.179-.041.3161-.1851.348-.366l1.4872-8.4268c.0859-.4865.7755-.5095.8936-.0298l2.067,8.3974c.0426.173.1819.3055.3569.3394l8.4906,1.6427c.485.0938.4967.7838.0151.8939l-8.3415,1.9086c-.179.041-.3161.1851-.348.366l-1.4872,8.4268c-.0859.4865-.7755.5095-.8936.0298Z"/><path class="cls-26" d="m168.4427,441.8193l-1.8956-7.7011c-.0391-.1587-.1668-.2802-.3273-.3112l-7.7866-1.5065c-.4448-.0861-.4555-.7188-.0139-.8198l7.6498-1.7503c.1642-.0376.2899-.1698.3192-.3356l1.3639-7.7281c.0787-.4462.7112-.4672.8195-.0273l1.8956,7.7011c.0391.1587.1668.2802.3273.3112l7.7866,1.5065c.4448.0861.4555.7188.0139.8198l-7.6498,1.7503c-.1642.0376-.2899.1698-.3192.3356l-1.3639,7.7281c-.0787.4462-.7112.4672-.8195.0273Z"/><rect class="cls-8" x="386" y="100" width="10" height="10" rx="5" ry="5"/><rect class="cls-7" x="352" y="475" width="10" height="10" rx="5" ry="5"/><rect class="cls-5" x="511" y="250" width="17" height="17" rx="8.5" ry="8.5"/><rect class="cls-6" x="126" y="333" width="10" height="10" rx="5" ry="5"/><path class="cls-25" d="m87.6602,302.8291h0c-1.1185-1.9503,1.5956-5.6273,6.0312-8.1711,0,0,25.1097-12.2798,26.2282-10.3295h0s-22.161,17.4215-22.161,17.4215c-4.4357,2.5438-8.98,3.0295-10.0985,1.0792Z"/><path class="cls-19" d="m213.3209,110.2376h0c-1.3051-2.2756,1.8617-6.566,7.0373-9.5341,0,0,29.298-14.3281,30.6031-12.0525h0s-25.8575,20.3274-25.8575,20.3274c-5.1755,2.9682-10.4778,3.5348-11.7829,1.2592Z"/><path class="cls-24" d="m199.3209,478.2376h0c-1.3051-2.2756,1.8617-6.566,7.0373-9.5341,0,0,29.298-14.3281,30.6031-12.0525h0s-25.8575,20.3274-25.8575,20.3274c-5.1755,2.9682-10.4778,3.5348-11.7829,1.2592Z"/><path class="cls-21" d="m479.8096,214.1554h0c-.8359-1.4576,1.1925-4.2057,4.5076-6.1069,0,0,18.7664-9.1776,19.6024-7.72h0s-16.5626,13.0204-16.5626,13.0204c-3.3151,1.9012-6.7114,2.2642-7.5474.8065Z"/><path class="cls-22" d="m101.8096,393.1554h0c-.8359-1.4576,1.1925-4.2057,4.5076-6.1069,0,0,18.7664-9.1776,19.6024-7.72h0s-16.5626,13.0204-16.5626,13.0204c-3.3151,1.9012-6.7114,2.2642-7.5474.8065Z"/><path class="cls-20" d="m307.8096,458.1554h0c-.8359-1.4576,1.1925-4.2057,4.5076-6.1069,0,0,18.7664-9.1776,19.6024-7.72h0s-16.5626,13.0204-16.5626,13.0204c-3.3151,1.9012-6.7114,2.2642-7.5474.8065Z"/><path class="cls-23" d="m405.2414,269.0739c-8.1598-1.6379-16.6028-2.3135-25.2414-2.0739-24.5458.6808-44.0192,7.0881-61.6284,14.1979-23.7468,9.588-44.1362,18.9124-68.8716,20.3021-44.5,2.5-82.5-52.5-82.5-49.5-.19,1.4271-1.1249,5.8564-1.2719,7.2964-.0164.1609-.0331.3218-.049.4829-.2786,2.8259-.4693,5.6768-.5759,8.549-.0117.3179-.0228.6359-.0323.9543-.0424,1.4013-.0709,2.806-.0709,4.2174,0,76.9209,62.5796,139.5,139.5,139.5,1.1713,0,2.339-.0156,3.5035-.0445.3846-.0095.7669-.0289,1.1508-.0416.7775-.0256,1.5551-.0505,2.3293-.0888.4616-.0229.9205-.0557,1.381-.0831.6937-.0413,1.3878-.0809,2.0787-.1322.4922-.0366.9818-.0824,1.4725-.1241.6548-.0557,1.3101-.1101,1.9623-.1748.507-.0504,1.0116-.1089,1.517-.1646.6331-.0699,1.2664-.1392,1.8969-.2175.5139-.0638,1.0256-.1348,1.5378-.2042.6167-.0836,1.2332-.1675,1.8474-.2592.5201-.0776,1.0383-.1613,1.5565-.2447.6016-.0967,1.2026-.1948,1.8015-.2993.523-.0912,1.0443-.1874,1.5653-.2844.5908-.11,1.1807-.2223,1.7689-.3398.5228-.1044,1.0441-.2127,1.5647-.3229.5812-.123,1.1613-.2495,1.7397-.3798.5217-.1176,1.0424-.2377,1.562-.3611.5729-.1361,1.1443-.2763,1.7145-.4194.5197-.1304,1.0386-.2626,1.5559-.3988.5641-.1486,1.1261-.3022,1.6874-.4576.519-.1437,1.0377-.2881,1.5542-.4377.5531-.1602,1.1037-.3263,1.6541-.4931.5183-.1572,1.0368-.3139,1.5525-.4769.5439-.1719,1.0847-.3506,1.6257-.5289.5166-.1703,1.0338-.3392,1.5477-.5154.5311-.1821,1.0586-.3718,1.5869-.5601.5185-.1848,1.0381-.3674,1.5538-.5582.517-.1912,1.0299-.3909,1.544-.5881.52-.1995,1.0416-.3958,1.5586-.6013.4976-.1978.9905-.4046,1.4852-.6079.5281-.217,1.0582-.4301,1.583-.6534.4521-.1923.8992-.394,1.3488-.591.5619-.2462,1.126-.488,1.684-.7413.1425-.0647.2826-.1335.4248-.1986,1.5373-.7042,3.0582-1.438,4.5649-2.1959.2734-.1375.5496-.2698.8219-.4091.619-.3165,1.2313-.644,1.8448-.9694.3508-.186.7044-.3677,1.0535-.5566.5951-.3221,1.184-.6542,1.7738-.9847.3599-.2017.722-.3998,1.08-.6045.5829-.3334,1.16-.6758,1.7377-1.0173.3583-.2118.7182-.421,1.0744-.6359.5731-.3458,1.1409-.6995,1.7086-1.0533.3536-.2203.7085-.439,1.06-.6624.5665-.3601,1.1282-.7272,1.6891-1.0953.344-.2256.6887-.4503,1.0305-.6788.5633-.3766,1.1222-.7595,1.6796-1.1441.3315-.2287.6631-.4572.9925-.6886.5609-.3942,1.1178-.7935,1.6725-1.1957.3174-.23.6343-.4604.9497-.6931.5602-.4133,1.117-.8312,1.6708-1.2526.3007-.2288.6005-.4587.8992-.6898.5613-.4344,1.1195-.8725,1.674-1.3152.2814-.2246.5613-.4509.8409-.6776.5648-.4581,1.127-.9193,1.6844-1.3859.2578-.2158.5137-.4337.77-.6513.573-.4866,1.1436-.976,1.7085-1.4717.2275-.1996.4528-.4016.679-.6026.5862-.521,1.1701-1.0445,1.7474-1.5751.1897-.1743.3768-.3513.5656-.5266.6074-.5645,1.2122-1.1315,1.8095-1.7065.1372-.1321.272-.2665.4087-.3992.6436-.6246,1.2838-1.2527,1.9152-1.8896.0535-.0541.106-.1092.1595-.1633,6.6232-6.7014,12.5751-14.0676,17.7435-21.9898.0198-.0303.04-.0604.0598-.0906.5498-.8442,1.0898-1.6953,1.6217-2.5519.0344-.0555.0695-.1106.1038-.1661.5211-.8418,1.0327-1.6901,1.5363-2.5436.0418-.0709.0841-.1416.1258-.2125.499-.8492.9888-1.7044,1.4702-2.5649.0406-.0726.0814-.1451.1219-.2178.4814-.8641.9539-1.734,1.4174-2.6093.0358-.0676.0715-.1351.1072-.2028.4678-.8871.9267-1.7796,1.3759-2.6778.0248-.0496.0494-.0993.0742-.1489.4581-.9188.9069-1.843,1.3452-2.7731.0106-.0226.0212-.0454.0318-.0681,6.8195-14.4941,11.2167-30.3443,12.6655-47.0256-11.6641-8.3993-24.5444-13.8513-38.2216-16.5967Z"/><path class="cls-29" d="m429.9407,334.4922c-15.3622-8.0105-32.4089-11.5388-50.3153-11.0421-56.3068,1.5617-85.3241,33.9595-127.4658,33.6978-46.5742-.2893-68.3036-33.4831-84.877-58.4663,11.8885,64.9426,68.8929,114.3184,137.2173,114.3184,55.0616,0,102.7695-32.069,125.4407-78.5078Z"/><path class="cls-30" d="m250,302c24.774.1539,44.6248-11.2141,68.3716-20.8021-12.6765-5.7986-26.1153-14.4976-42.3716-22.1979-19-9-51-18-73-15,0,0-19.2481.8849-36,8,16.1802,23.2048,42.2145,49.7467,83,50Z"/><path class="cls-18" d="m343.2015,139.4666c29.2742,25.5909,47.7985,63.1879,47.7985,105.0334,0,76.9209-62.5796,139.5-139.5,139.5-13.4235,0-26.408-1.9113-38.7017-5.4666,24.5376,21.4503,56.6267,34.4666,91.7017,34.4666,76.9204,0,139.5-62.5791,139.5-139.5,0-63.4969-42.6461-117.216-100.7985-134.0334Z"/><circle id="low_yellow" class="cls-4" cx="304.5" cy="273.5" r="139.5"/><path class="cls-9" d="m304.5,124c-82.5665,0-149.5,66.9334-149.5,149.5s66.9335,149.5,149.5,149.5,149.5-66.9335,149.5-149.5-66.9334-149.5-149.5-149.5Zm0,289c-76.9204,0-139.5-62.5791-139.5-139.5s62.5796-139.5,139.5-139.5,139.5,62.5796,139.5,139.5-62.5796,139.5-139.5,139.5Z"/><circle id="shine" class="cls-2" cx="304.5" cy="273.5" r="149.5"/><path class="cls-1" d="m237.3252,174.7133c9.4021-6.4137,19.7626-11.5215,30.8184-15.0602"/><path class="cls-1" d="m219.722,189.3597c2.7212-2.7416,5.574-5.3523,8.548-7.8219"/></g></g></svg>